<svg version="1.1" xmlns="http://www.w3.org/2000/svg" xmlns:xlink="http://www.w3.org/1999/xlink" x="0px" y="0px" viewBox="0 0 1000 1000" enable-background="new 0 0 1000 1000" xml:space="preserve">
<g><g transform=><path d="M1044,4989.1c-214.3-47.8-396-151.1-577.7-334.8c-185.6-185.6-286.9-363.5-334.8-585.4c-42.1-199-42.1-7697.7,0-7896.6c47.8-221.9,149.2-399.8,334.8-585.4c185.6-185.6,363.5-287,585.4-334.8c198.9-42.1,7697.7-42.1,7896.6,0c221.9,47.8,399.8,149.2,585.4,334.8c185.5,185.5,287,363.5,334.8,585.4c42.1,198.9,42.1,7697.7,0,7896.6c-47.8,221.9-149.2,399.8-334.8,585.4c-185.6,185.6-363.5,286.9-585.4,334.8C8757,5029.3,1229.6,5029.3,1044,4989.1z M8875.6,4595.1c166.4-30.6,296.5-99.5,407.5-218.1c109-114.8,160.7-220,191.3-382.6c28.7-154.9,28.7-7590.6,0-7747.4c-57.4-313.7-286.9-543.3-598.8-600.7c-156.8-28.7-7590.6-30.6-7747.4,0c-164.5,30.6-269.7,82.3-384.5,191.3c-118.6,111-187.5,241-218.1,407.5c-28.7,160.7-28.7,7590.6,0,7751.3c55.5,302.2,273.5,528,572,593C1241.1,4621.9,8705.4,4625.7,8875.6,4595.1z"/><path d="M2616.5,3345.9c-57.4-57.4-65-76.5-65-160.7c0-93.7-1.9-97.6-70.8-118.6c-352-112.9-650.4-424.7-742.2-776.6c-126.3-484,183.6-1027.3,694.4-1212.8l118.6-44V-983.1c0-2190.3-3.8-2094.7,105.2-2144.4c109-49.7,223.8-15.3,275.5,86.1c15.3,30.6,21,610.2,21,2058.3v2018.2l110.9,34.4c59.3,19.1,174.1,78.4,252.5,132c445.7,302.2,600.7,837.9,374.9,1298.9c-116.7,239.1-373,466.7-617.9,549l-120.5,40.2v82.3c0,109-32.5,177.9-97.6,212.3C2763.8,3430.1,2689.2,3418.6,2616.5,3345.9z M3056.4,2628.6c158.8-76.5,248.7-181.7,298.4-342.4c89.9-288.8,7.7-583.4-206.6-738.4c-237.2-174.1-612.1-158.8-839.8,34.4c-34.4,28.7-89.9,109-124.3,179.8c-57.4,116.7-63.1,143.5-63.1,300.3c1.9,185.6,36.3,294.6,135.8,424.7C2415.6,2695.5,2788.6,2760.6,3056.4,2628.6z"/><path d="M4925.4,3380.4c-99.5-70.8-97.6-17.2-97.6-2014.3V-491.4l-51.7-11.5c-235.3-57.4-556.7-327.1-673.3-562.4c-143.5-294.6-145.4-583.4-3.8-870.4c130.1-264,348.2-462.9,604.5-556.7l114.8-42.1l9.6-235.3c5.7-135.8,19.1-254.4,34.4-279.3c76.5-135.8,275.5-135.8,352,0c15.3,24.9,28.7,143.5,34.4,279.3l9.6,235.3l105.2,38.2c143.5,53.6,344.3,189.4,441.9,298.4c315.6,357.7,361.6,814.9,120.5,1210.9c-122.4,204.7-373,399.8-604.5,474.4l-72.7,24.9v1857.5c0,1731.2-1.9,1863.2-34.4,1926.3C5160.7,3405.2,5021,3445.4,4925.4,3380.4z M5325.2-935.2c221.9-103.3,327.1-269.7,340.5-541.3c5.7-141.6,0-191.3-32.5-279.3c-93.7-246.8-306.1-386.4-585.4-388.3c-193.2,0-323.3,42.1-440,145.4c-135.8,118.6-187.5,237.2-197,447.6c-9.6,197,9.6,275.5,93.7,411.3c65,103.3,170.2,181.7,309.9,231.5C4957.9-856.8,5183.6-868.3,5325.2-935.2z"/><path d="M7127.2,3380.4c-95.7-66.9-99.5-97.6-99.5-734.6c0-568.1-1.9-593-36.3-593c-19.1,0-107.1-36.3-195.1-80.3c-382.6-191.3-638.9-619.8-602.6-1006.2c13.4-135.8,76.5-321.4,151.1-449.5c112.9-191.3,374.9-401.7,579.6-466.8l103.3-32.5l3.8-1528.4l5.7-1528.5l63.1-55.4c86.1-78.5,195.1-78.5,273.6,0c30.6,30.6,55.5,76.5,57.4,101.4c0,24.9,1.9,709.7,3.8,1522.7L7439,7.9l135.8,53.5c168.4,65,275.5,137.8,411.3,281.2c199,210.4,288.9,426.6,288.9,696.3c0,212.3-51.7,374.9-177.9,564.3c-139.7,208.5-357.7,373-581.5,440l-76.5,23l-1.9,600.7c0,430.4-7.7,612.1-24.9,642.7C7364.4,3401.4,7209.5,3439.7,7127.2,3380.4z M7538.5,1616.6c126.2-65,210.4-149.2,267.8-267.8c47.8-97.6,53.6-128.2,53.6-309.9c0-174.1-5.7-214.3-47.8-296.5c-59.3-120.5-156.9-218.1-277.4-277.4c-82.3-42.1-122.4-47.8-296.5-47.8c-181.7,0-212.3,5.7-309.9,53.6C6869,499.5,6792.4,555,6758,593.2c-264,302.2-187.5,834,145.4,1004.3c124.3,65,162.6,70.8,363.5,67C7419.9,1658.7,7473.4,1651.1,7538.5,1616.6z"/></g></g>
</svg>
