<?xml version="1.0" encoding="utf-8"?>
<!-- Svg Vector Icons : http://www.onlinewebfonts.com/icon -->
<!DOCTYPE svg PUBLIC "-//W3C//DTD SVG 1.1//EN" "http://www.w3.org/Graphics/SVG/1.1/DTD/svg11.dtd">
<svg version="1.1" xmlns="http://www.w3.org/2000/svg" xmlns:xlink="http://www.w3.org/1999/xlink" x="0px" y="0px" viewBox="0 0 1000 1000" enable-background="new 0 0 1000 1000" xml:space="preserve">
<metadata> Svg Vector Icons : http://www.onlinewebfonts.com/icon </metadata>
<g><g transform="translate(0.000000,511.000000) scale(0.100000,-0.100000)"><path d="M4019.2,2676.1L2377.6,340l1119.5-10.8l1119.5-10.8L3063.6-2205.4c-854.2-1387-1563.9-2543.2-1576.8-2566.9c-15.1-30.2,0-21.6,49.6,23.7c41,36.7,1300.7,1197.2,2802,2577.7C5839.7-790.3,7392.8,637.6,7789.7,1004.3c396.9,364.6,724.8,673,729.1,686c4.3,10.8-498.3,21.6-1287.8,23.7l-1296.4,6.5l1121.7,1632.9c616.9,897.3,1121.7,1637.2,1121.7,1643.7c0,6.5-565.1,12.9-1257.5,12.9H5662.8L4019.2,2676.1z"/></g></g>
</svg>